<svg width="15" height="16" viewBox="0 0 15 16" fill="none" xmlns="http://www.w3.org/2000/svg">
<g clip-path="url(#clip0_69_888)">
<path d="M15 13.44C15.0014 13.7269 14.9425 14.0109 14.8272 14.2736C14.7119 14.5363 14.5427 14.7719 14.3307 14.9651C14.1186 15.1583 13.8683 15.3049 13.596 15.3953C13.3237 15.4857 13.0355 15.518 12.75 15.49C10.53 15.25 8.39998 14.49 6.53998 13.29C4.8012 12.1877 3.32632 10.7162 2.21998 8.97998C1.00309 7.1026 0.245946 4.96477 0.00998376 2.73998C-0.016443 2.45608 0.0166451 2.16978 0.107134 1.89939C0.197622 1.629 0.343521 1.38046 0.535508 1.16965C0.727494 0.958845 0.961346 0.790404 1.22212 0.675095C1.48289 0.559786 1.76485 0.500144 2.04998 0.49998H4.09998C4.59961 0.495008 5.08401 0.671794 5.46299 0.997417C5.84196 1.32304 6.08967 1.7753 6.15998 2.26998C6.23998 2.86998 6.38998 3.46998 6.59998 4.03998C6.87998 4.78998 6.69998 5.63998 6.13998 6.20998L5.63998 6.70998C6.44998 7.95998 7.51998 9.02998 8.78998 9.83998L9.28998 9.33998C9.56923 9.06618 9.92063 8.87753 10.3031 8.79607C10.6856 8.71461 11.0834 8.74372 11.45 8.87998C12.02 9.09998 12.62 9.23998 13.23 9.31998C13.729 9.38864 14.1853 9.63865 14.5118 10.0223C14.8383 10.4059 15.0121 10.8964 15 11.4V13.44ZM13.63 11.39C13.637 11.2211 13.5819 11.0556 13.4749 10.9247C13.368 10.7939 13.2168 10.7068 13.05 10.68C12.3392 10.5857 11.6415 10.4112 10.97 10.16C10.8482 10.1133 10.7156 10.1026 10.588 10.1292C10.4603 10.1558 10.343 10.2186 10.25 10.31L9.37998 11.18C9.27283 11.2868 9.13354 11.3554 8.98357 11.3753C8.8336 11.3951 8.68126 11.3652 8.54998 11.29C6.73114 10.255 5.22496 8.74882 4.18998 6.92998C4.11433 6.80128 4.08312 6.65125 4.1012 6.50305C4.11927 6.35486 4.18561 6.21673 4.28998 6.10998L5.16998 5.24998C5.26333 5.15611 5.32725 5.03703 5.35389 4.90736C5.38054 4.77768 5.36875 4.64305 5.31998 4.51998C5.06968 3.85507 4.89525 3.16403 4.79998 2.45998C4.77802 2.29299 4.69574 2.1398 4.56864 2.02928C4.44154 1.91876 4.27841 1.85854 4.10998 1.85998H2.05998C1.96501 1.85973 1.871 1.87909 1.78385 1.91685C1.6967 1.95461 1.61829 2.00996 1.55351 2.07942C1.48874 2.14889 1.43901 2.23098 1.40743 2.32055C1.37585 2.41012 1.3631 2.50525 1.36998 2.59998C1.58998 4.60998 2.26998 6.53998 3.36998 8.23998C4.36998 9.80998 5.69998 11.14 7.26998 12.14C8.95895 13.2323 10.8803 13.9138 12.88 14.13C12.9755 14.1383 13.0717 14.1267 13.1625 14.0957C13.2533 14.0648 13.3366 14.0153 13.4072 13.9504C13.4777 13.8855 13.534 13.8065 13.5724 13.7187C13.6107 13.6308 13.6303 13.5359 13.63 13.44V11.39Z" fill="#3390EC"/>
</g>
<defs>
<clipPath id="clip0_69_888">
<rect width="15" height="15" fill="white" transform="translate(0 0.5)"/>
</clipPath>
</defs>
</svg>
