<svg xmlns="http://www.w3.org/2000/svg" viewBox="0 0 101 10.9" fill="#7d96a4"><path d="M6 .1C3.8.3 2 1.3 1 2.5-.4 4.3-.3 7 1.2 8.5c.7.7 1.8 1.1 3 1 1.5-.1 2.6-.8 3.1-2 .2-.6.2-.6.2-1.5s0-1-.3-1.5c-.4-1-1.2-1.6-2.1-1.6-1.1 0-1.5.9-.5 1.2.2.1.4 0 .8-.1l.6-.1.2.2c.1.1.3.4.4.6.2.4.2.5.2 1.3s0 .9-.2 1.3c-.5 1-1.7 1.6-3.1 1.5-.5 0-.8-.1-1.1-.2C1.3 8.1.7 6.9.7 5.4c0-1.2.4-2.1 1.3-2.9.5-.5.7-.7 1.3-1C4.4 1 5.4.8 7.1.7 9.2.7 11 1 13.6 2c.4.1.7.3.8.3 0 0 .2-.1.3-.2l.3-.2-1-.4C11.5.5 9.9.2 8 .1 7.2 0 6.3 0 6 .1zm86 0c-1.3.1-3 .6-4.9 1.4l-1 .4.2.1a1.44 1.44 0 0 0 .3.2s.2-.1.5-.2c1.6-.6 3.3-1.1 4.6-1.3 1.3-.1 3.3 0 4.4.3 1.3.3 2.2.8 2.9 1.5.9.9 1.3 1.7 1.3 2.9 0 .7-.2 1.5-.5 2-.5.9-1.2 1.3-2.3 1.4-1.4.1-2.6-.5-3.1-1.5-.2-.4-.2-.5-.2-1.3s0-.9.2-1.3c.1-.2.3-.5.4-.6l.2-.2.5.1c.5.1.6.1.9 0 1-.3.6-1.2-.5-1.2-.9 0-1.7.6-2.2 1.6-.2.6-.2.7-.2 1.6s0 1 .3 1.5c.4.9 1.2 1.6 2.2 1.8 2 .5 3.7-.2 4.5-1.8s.6-3.6-.5-5.1C98.6.7 95.4-.3 92 .1z"/><path d="M35.9.3c-.6.2-.9.4-1.4.9s-.6 1-.6 1.9c0 .8.2 1.7.6 2.3.1.2.2.3.2.3l-1.2-.6c-3.1-1.7-5.9-3.1-7.7-3.7-3-1-6.1-1.1-8.7-.3-1.9.6-3.5 1.9-4.3 3.5-.4.7-.5 1.2-.4 2.1 0 .7 0 .9.2 1.4.7 1.7 2.2 2.8 4 2.8.8 0 1.3-.1 2.1-.5 1-.5 1.8-1.3 1.9-1.8 0-.5 0-.6-.3-.9-.2-.2-.3-.3-.5-.3-.6 0-.9.5-.8 1.4.1.4 0 .5-.6.8s-1.2.5-2 .4c-.6 0-.8-.1-1.3-.3-1.5-.7-2.2-2.4-1.8-3.9.5-1.8 2.3-3.4 4.3-3.8.7-.1 2.4-.2 3.3 0 2.6.5 5.2 1.5 11.4 4.6 4 2 5.3 2.5 7.4 3s4.3.6 5.8.4c2.4-.5 4.1-1.9 4.6-3.9.2-.8.1-1.9-.1-2.5-.7-1.4-2.7-2.1-4.6-1.5-.9.3-1.5.8-1.5 1.4 0 .7 1 .8 1.5.2.1-.1.3-.3.3-.5.2-.4.3-.5.3-.6.2-.1 1.3-.1 1.8.1.6.2 1 .5 1.3 1.1.2.4.2.5.2 1.3s0 .9-.3 1.5c-.6 1.2-1.7 2.1-3.3 2.5-.9.2-3 .2-4.2 0-3.3-.7-6.1-2.6-6.8-4.8-.2-.7-.2-1.8 0-2.2.3-.5.8-1 1.3-1.1.4-.1 1.6-.2 1.8-.1a6.07 6.07 0 0 0 .3.5c.2.5.4.7.8.7.5 0 .6-.5.4-1-.5-.8-2.1-1.2-3.4-.8zM63.2.2c-1.2.3-2 1.3-1.4 1.9.1.2.5.2.7 0 .1-.1.3-.3.4-.6s.3-.5.3-.5c.2-.2 1.5-.2 1.8 0 .5.1 1 .6 1.2 1s.2 1.6 0 2.2c-.7 2.1-3.4 4.1-6.8 4.8-1.2.2-3.2.2-4.2 0-1.6-.4-2.8-1.3-3.3-2.5-.3-.6-.3-.7-.3-1.5s0-.9.2-1.3c.3-.5.7-.9 1.3-1.1.4-.1 1.6-.2 1.8-.1 0 0 .2.2.3.4.3.8.7 1.1 1.2 1.1.4 0 .7-.3.7-.6 0-.6-.6-1.1-1.5-1.4-1.9-.6-3.9 0-4.6 1.5-.3.6-.3 1.7-.1 2.5.4 1.7 1.6 2.9 3.3 3.6 1.8.7 4.3.7 7.1 0 2.1-.5 3.4-1 7.4-3C75 3.5 77.6 2.5 80.1 2c.9-.2 2.6-.1 3.4 0 2 .5 3.7 2.1 4.2 3.8.4 1.6-.4 3.2-1.8 3.9-1 .5-2.5.4-3.4-.3l-.5-.2v-.7c0-.7 0-.7-.2-.9-.6-.6-1.6.1-1.3 1 .1.4.4.9 1 1.3 1 .7 1.9 1 2.9 1 3.1 0 5.1-3 4-5.9C87.2 2 83.5.2 79.2.6c-2.2.2-3.8.6-6.2 1.7-1.3.6-3.6 1.8-5.5 2.8-.6.4-1.2.7-1.2.6 0 0 .1-.2.2-.3.4-.6.6-1.5.6-2.3 0-1-.2-1.5-.8-2.1S65.2.2 64.1.1c-.4.1-.8.1-.9.1z"/><path d="M16.2 2.7c-.2.1-.3.2-.3.2-.1.1 3.9 1.9 6.3 2.8l3 1.1c1 .3 1.9.6 1.9.7.1 0 .2.1.3.3.3.5 1.2.5 1.2 0 .1-.4-.4-.7-2.1-1.2l-8.1-3.1-1.9-.9c0-.1-.1 0-.3.1zm66.3.7c-1.8.8-5.6 2.2-8.1 3.1-1.6.5-2.1.8-2.1 1.2.1.5 1 .4 1.2 0l.3-.3c.1 0 .9-.3 1.9-.7a32.83 32.83 0 0 0 3-1.1c2.4-.9 6.4-2.7 6.3-2.8 0-.1-.6-.4-.7-.4.1.1-.8.5-1.8 1zM24.3 5.2s.3.1.7.3c.6.2.7.2 2.7.3h2s-.2-.1-.5-.3l-.5-.2h-2.2c-1.2-.2-2.2-.2-2.2-.1zm50.1 0h-2.1l-.5.2c-.3.1-.5.2-.5.3h2c2 0 2 0 2.7-.3.4-.1.6-.3.6-.3s0-.1-.1 0c.1 0-.9 0-2.1.1zm-73.3.2v.3h2.7l2.6-.1v-.3c0-.1-.1-.1-2.6-.1H1.1v.2zm6.9 0v.3h2 2v-.3l.1-.3H10 8v.3z"/><path d="M13.9 5.2s-.1.2-.1.3l-.1.2h3.7 3.7s-.3-.2-.7-.3l-.7-.2h-2.9-2.9zm22 .2l.2.3h6.3 6.3v-.3-.2h-6.5-6.5l.2.2zm16.4 0v.3h6.3 6.3l.2-.3.2-.3h-6.5-6.5v.3zm28.2 0c-.3.1-.6.3-.6.3h3.7 3.7l-.1-.3-.1-.2h-3-3l-.6.2zm8.4 0l.1.3h2c2.1 0 2 0 2-.4 0-.1-.1-.1-2.1-.1h-2.1l.1.2zm5.7-.1v.3c0 .1.2.1 2.6.1h2.7v-.3-.2h-2.6l-2.7.1z"/></svg>