<svg width="49" height="49" viewBox="0 0 49 49" fill="none" xmlns="http://www.w3.org/2000/svg">
<path d="M23.6092 3.24541V3.38108C23.5791 4.00807 23.0629 4.52458 22.3991 4.56335C18.8038 4.77266 15.6273 5.53823 13.8689 7.08292C11.2578 9.37865 8.481 13.8509 8.41271 15.0215L8.44585 15.6233L8.61356 17.9908L8.75416 19.6527L8.75717 19.8136C8.74613 20.0384 8.67181 20.2574 8.54025 20.4474L6.88422 22.8439L6.05671 24.0552C4.8064 25.8955 3.7459 27.4925 3.11422 28.4916L2.73862 29.1021C2.85211 29.2136 2.9927 29.3386 3.13832 29.4578L6.73559 29.6768C7.34116 29.7136 7.83024 30.1516 7.92665 30.7185L7.94171 30.8513L8.1265 34.338L8.31028 37.5485L8.47196 40.0662L8.51414 40.5584C8.55732 40.9548 8.60854 41.0885 8.71801 41.2C8.98715 41.4723 9.35772 41.5847 9.9181 41.5895H10.1069L11.8533 41.5769C12.1707 41.5769 12.4278 41.5808 12.71 41.5886L13.0243 41.5992C15.7006 41.7155 17.2392 42.3202 17.4732 43.8504L17.4953 44.0316L17.6027 45.2817C17.6329 45.712 17.6509 46.118 17.6529 46.5114H36.2921L36.2931 39.163C36.268 38.8112 36.29 38.3713 36.3965 37.8838C36.5562 37.1551 36.8765 36.469 37.3988 35.874C37.6398 35.5997 37.8687 35.4185 38.2644 35.1811L38.8218 34.8603C40.295 33.993 41 32.9735 41.5273 30.0886L41.5976 29.6768L41.6377 29.3347L41.704 28.5594C41.7593 27.8665 41.8225 26.9372 41.8878 25.8848L42.0977 22.2149C42.1349 21.525 42.7364 20.9939 43.4504 21.0356C44.1143 21.0685 44.6355 21.5802 44.6726 22.2052V22.3409L44.5069 25.3043L44.3533 27.6931C44.287 28.6525 44.2267 29.3812 44.1755 29.827L44.1313 30.1497C43.4555 34.1393 42.3307 35.715 40.1625 36.9865L39.7066 37.2462C39.5087 37.3625 39.4153 37.4264 39.3671 37.4826C39.2607 37.6038 39.1723 37.7394 39.099 37.8867C38.9423 38.2055 38.876 38.5379 38.866 38.8209V38.9837L38.869 39.036L38.871 47.7547C38.873 48.4428 38.2956 49 37.5835 49H16.3434C15.9959 49 15.6625 48.8643 15.4195 48.6221C15.1764 48.3817 15.0449 48.0561 15.0549 47.7208L15.088 46.4378L15.0931 45.9571L15.0901 45.555C15.083 45.1906 15.0629 44.9328 15.0268 44.7477C14.9545 44.3717 14.0185 44.1169 12.496 44.0587L11.9327 44.0452C11.7418 44.0432 11.543 44.0432 11.3301 44.0452L9.79156 44.0752L9.42903 44.0403C8.46694 43.923 7.48879 43.6207 6.77375 43.0286C6.30075 42.6381 6.0306 41.981 5.91009 41.1263L5.87695 40.8647C5.87293 40.8259 5.8669 40.7484 5.85987 40.6321L5.42804 32.0907L2.57393 31.9163C2.32587 31.9018 2.08686 31.8174 1.88601 31.674C0.646745 30.7864 0 29.9491 0 29.1506L0.00100371 29.0982L0.00903819 29.0159L0.0311313 28.917C0.211899 28.2367 1.24026 26.5525 4.23899 22.183L6.14709 19.424L6.0065 17.7272C5.93519 16.7978 5.87594 15.9053 5.83577 15.1175C5.74639 13.283 8.97309 8.02098 12.1325 5.2446C14.3921 3.25704 18.1079 2.31995 22.2424 2.07962C22.9484 2.03408 23.567 2.56028 23.6092 3.24541ZM29.6981 0C32.6205 0 34.9986 2.29475 34.9986 5.11571C34.9986 6.70789 34.2353 8.17797 32.97 9.13735L42.9855 14.8326C43.573 13.9284 44.6074 13.3586 45.7442 13.3586C47.5398 13.3586 49 14.7676 49 16.5003C49 18.2321 47.5388 19.6421 45.7442 19.6421C44.8896 19.6421 44.0872 19.3203 43.4876 18.7631L36.2649 25.7075C38.0525 26.4866 39.2476 28.2174 39.2476 30.1623C39.2476 32.8573 36.976 35.0503 34.1831 35.0503C31.3903 35.0503 29.1176 32.8573 29.1176 30.1623C29.1176 28.9005 29.6197 27.7144 30.4914 26.819L22.6853 23.7247C21.9602 24.6773 20.8063 25.2578 19.552 25.2578C17.4089 25.2578 15.6655 23.5765 15.6655 21.5095C15.6655 19.4415 17.4089 17.7601 19.552 17.7601C20.2249 17.7601 20.8726 17.9268 21.446 18.2369L27.8131 9.89613L27.574 9.80116C25.677 8.99974 24.3976 7.17595 24.3976 5.11571C24.3976 2.29475 26.7747 0 29.6981 0ZM34.1831 27.7638L34.0626 27.7658L33.8517 27.7832L33.7312 27.8065L33.687 27.8113C32.5381 28.0361 31.6965 29.0178 31.6965 30.1623C31.6965 31.4851 32.8123 32.5617 34.1831 32.5617C35.5539 32.5617 36.6697 31.4851 36.6697 30.1623C36.6697 28.8395 35.5539 27.7629 34.1831 27.7629V27.7638ZM29.3928 12.0261L23.1794 20.1644C23.2969 20.4609 23.3762 20.771 23.4134 21.0898L23.4335 21.3311L31.7588 24.6308L29.3928 12.0261ZM31.8994 11.4156L34.2795 24.1027L41.688 16.9829L31.8994 11.4147V11.4156ZM19.552 20.2497C18.8329 20.2497 18.2465 20.8156 18.2465 21.5095C18.2465 22.2043 18.8319 22.7702 19.552 22.7702C20.2731 22.7702 20.8595 22.2043 20.8595 21.5104C20.8595 20.8156 20.2731 20.2497 19.552 20.2497ZM45.7452 15.8462C45.3726 15.8462 45.0683 16.1398 45.0683 16.5003C45.0683 16.8608 45.3726 17.1535 45.7452 17.1535C46.1178 17.1535 46.4221 16.8608 46.4221 16.5003C46.4221 16.1398 46.1178 15.8462 45.7452 15.8462ZM29.6991 2.48857C28.1987 2.48857 26.9775 3.66696 26.9775 5.11475C26.9775 6.5635 28.1987 7.74189 29.6991 7.74189L29.8316 7.73898L29.9521 7.73123L30.2122 7.69538C31.4776 7.4628 32.4216 6.38423 32.4216 5.11571C32.4216 3.66696 31.1994 2.48857 29.6991 2.48857Z" fill="#3390EC"/>
</svg>
