<svg width="40" height="52" viewBox="0 0 40 52" fill="none" xmlns="http://www.w3.org/2000/svg">
<path d="M10.1628 10.871L10.3237 10.883L10.4646 10.913L10.5827 10.954L10.6859 11.0037L10.8293 11.096L10.9264 11.1816L10.9877 11.2475L11.0612 11.3433L11.1268 11.4545L11.1495 11.4999L11.1862 11.5957L11.2169 11.7069L11.2588 11.9191C11.7505 14.0134 15.0378 15.7175 18.9481 15.7175C22.5381 15.7175 25.668 14.2683 26.4886 12.3485L26.5533 12.1826C26.5708 12.1321 26.5927 12.0842 26.6268 12.0217L26.688 11.9242L26.772 11.8215C26.8087 11.783 26.8498 11.7445 26.9006 11.7052L27.0055 11.6325L27.1245 11.5709L27.233 11.5289L27.3616 11.4964L27.4945 11.4785L27.9669 11.4725C29.7847 11.4793 31.3768 11.8284 32.8656 12.5607C38.2507 15.1931 39.2479 20.6342 36.1539 26.1506L35.8188 26.7383C34.5915 28.9541 33.1945 32.549 32.5901 35.0017L32.5008 35.3799C32.4991 35.3884 32.3259 36.617 32.1501 37.8438L31.7232 40.7465L31.5307 41.9562L31.3671 42.9101L31.1878 43.8315C30.0576 49.3855 28.5924 52 26.199 52C24.6752 52 23.6832 51.1111 23.2825 49.4925L23.2187 49.2102L23.1618 48.9082C23.0603 48.2948 23.021 47.589 23.0157 46.3647L23.0245 43.7768L23.0192 43.1702C23.0114 42.7082 22.9965 42.3113 22.9694 41.8733C22.755 38.3639 21.8173 36.2568 19.8561 35.0086C19.3137 34.6578 18.4731 34.6749 17.9263 35.0599C16.1436 36.2961 15.2408 38.2835 14.9757 41.4583L14.9495 41.8091L14.9128 42.4524L14.8909 43.1197L14.8821 43.9025V46.274L14.8743 46.8746L14.8594 47.4452C14.8244 48.3307 14.75 48.9082 14.5978 49.507C14.1902 51.1154 13.1921 52 11.6665 52C9.28012 52 7.80876 49.4035 6.67244 43.8572L6.52373 43.1001L6.34878 42.1111L6.16507 40.9621L5.78455 38.3768L5.37079 35.3611C4.88092 32.9742 3.48479 29.3263 2.09216 26.8145L1.69501 26.1164C-1.32031 20.718 -0.348447 15.164 4.89841 12.3143C6.31553 11.5443 7.95223 11.0653 9.67727 10.9053L10.1216 10.8719L10.1628 10.871ZM9.37285 13.0603L8.96171 13.1245C7.87175 13.3161 6.84652 13.6652 5.94376 14.1554C1.93382 16.3335 1.15353 20.5315 3.44892 24.857L3.59326 25.1222L3.97466 25.7913C5.29293 28.1653 6.60333 31.4539 7.26291 34.0076L7.38538 34.5081L7.48248 34.9547L7.98984 38.5872L8.31088 40.7517L8.48846 41.8596L8.6048 42.5269L8.77888 43.4132L8.92672 44.1002L9.07893 44.7529C9.88021 48.0364 10.8608 49.8946 11.6665 49.8946C12.096 49.8946 12.2989 49.7286 12.4652 49.158L12.5063 49.0065L12.5544 48.8004L12.6025 48.5437C12.6576 48.2075 12.6908 47.8148 12.7101 47.263L12.7171 47.0166L12.7285 46.2509L12.7293 43.7195L12.7381 43.0778C12.7495 42.5816 12.7678 42.1513 12.8002 41.6731C13.0714 37.6547 14.2409 35.0343 16.6737 33.3463C17.9421 32.4532 19.7581 32.4198 21.0388 33.2488C23.4741 34.799 24.7032 37.2415 25.0583 40.969L25.0924 41.3591L25.1187 41.7501L25.1475 42.2899L25.158 42.5568L25.172 43.1189L25.1782 43.7554L25.1694 46.2475L25.1764 47.0038L25.1913 47.5068C25.2114 47.9705 25.2446 48.3196 25.2971 48.625L25.3251 48.7747L25.3767 49.0031C25.5499 49.7021 25.7433 49.8946 26.199 49.8946C27.1175 49.8946 28.2285 47.5231 29.0735 43.4294L29.1452 43.0735L29.2467 42.5414L29.3569 41.9135L29.482 41.1478L29.671 39.9235L30.3935 34.953L30.4959 34.5115C31.0951 32.0784 32.4204 28.5939 33.68 26.1908L33.9145 25.7545L34.2906 25.0932C36.7732 20.641 36.0436 16.4687 31.8999 14.4428C30.7977 13.9004 29.6228 13.6241 28.2687 13.583C26.8726 16.1393 23.1539 17.8238 18.9472 17.8238C14.5357 17.8238 10.706 15.9828 9.46382 13.2708L9.37285 13.0603ZM34.7682 0C35.3631 0 35.8442 0.470534 35.8442 1.05229V8.19499L38.1623 5.92787C38.5822 5.51723 39.2645 5.51723 39.6844 5.92787C40.1052 6.33852 40.1052 7.00582 39.6844 7.41647L35.6692 11.3399C35.6325 11.3895 35.5923 11.4374 35.5468 11.481C35.4024 11.623 35.2214 11.7197 35.0097 11.7659L34.9239 11.7805C34.5189 11.8369 34.1069 11.6607 33.9136 11.3741L29.8695 7.41647C29.4488 7.00582 29.4488 6.33852 29.8695 5.92787C30.2894 5.51723 30.9717 5.51723 31.3916 5.92787L33.6905 8.17703L33.6914 1.05314C33.6914 0.47139 34.1734 0 34.7682 0ZM27.9144 4.59412L28.0238 4.6369C28.5198 4.86104 28.7708 5.42141 28.5871 5.93728C27.5418 8.87256 23.5537 10.8864 18.9472 10.8864C13.8867 10.8864 9.64665 8.4756 9.1008 5.15449C9.01507 4.63091 9.33873 4.12787 9.86447 3.97559L10.168 3.89517L10.3622 3.84726L10.8582 3.73433C11.2518 3.64963 11.6726 3.56921 12.1161 3.49478C17.4216 2.60334 22.8303 2.91817 27.9144 4.59412ZM12.48 5.57027C12.1625 5.62416 11.8572 5.68063 11.5676 5.73966C12.5894 7.49347 15.554 8.78102 18.9472 8.78102C21.8803 8.78102 24.5282 7.81343 25.8439 6.37959L25.9891 6.21276L25.4178 6.05877C21.2181 4.97397 16.8066 4.84393 12.48 5.57112V5.57027Z" fill="#3390EC"/>
</svg>
