<svg width="60" height="15" viewBox="0 0 60 15" fill="#253746" xmlns="http://www.w3.org/2000/svg">
<g clip-path="url(#clip0_1451_5054)">
<path d="M52.1472 1.07556C54.7261 1.3039 56.8393 2.48143 58.0159 3.89899C59.6636 6.02571 59.557 9.22438 57.8052 11.007C56.9876 11.8389 55.7002 12.3171 54.2936 12.2033C52.5354 12.0907 51.2436 11.2658 50.653 9.84626C50.4163 9.13631 50.4163 9.13632 50.4127 8.07022C50.4092 7.00413 50.4088 6.88568 50.7584 6.29224C51.2232 5.10613 52.1583 4.39229 53.2129 4.38878C54.502 4.3845 54.9742 5.44903 53.8036 5.80829C53.5696 5.92752 53.3348 5.80985 52.8657 5.69295L52.1622 5.57683L51.9286 5.81452C51.8118 5.93337 51.5787 6.28951 51.4623 6.52681C51.2295 7.00141 51.2299 7.11986 51.233 8.0675C51.2362 9.01513 51.2366 9.13359 51.4725 9.60663C52.0624 10.7892 53.4709 11.4953 55.1111 11.3714C55.697 11.3694 56.0482 11.2498 56.3993 11.1302C57.6864 10.5336 58.3848 9.10982 58.3789 7.333C58.3741 5.91155 57.9019 4.84701 56.8441 3.90288C56.2562 3.31256 56.021 3.07643 55.3167 2.7234C54.0257 2.13542 52.8531 1.9024 50.8606 1.79057C48.3997 1.79876 46.2916 2.16113 43.2487 3.35581C42.7804 3.47582 42.4296 3.7139 42.3125 3.71429C42.3125 3.71429 42.0777 3.59661 41.9601 3.47855L41.6078 3.24281L42.778 2.76509C45.7037 1.57081 47.5775 1.20921 49.8036 1.08335C50.7406 0.961781 51.7953 0.958274 52.1472 1.07556Z" fill="#253746"/>
<path d="M17.1101 1.42895C17.8139 1.66352 18.1663 1.89926 18.7542 2.48959C19.3421 3.07991 19.4612 3.67179 19.4648 4.73789C19.4679 5.68552 19.2371 6.75239 18.7707 7.46468C18.6543 7.70198 18.5375 7.82082 18.5375 7.82082L19.9414 7.10542C23.5674 5.07961 26.843 3.41034 28.95 2.6926C32.4616 1.49636 36.0939 1.36583 39.1438 2.30334C41.3727 3.00666 43.2527 4.54034 44.1965 6.43249C44.668 7.26012 44.7871 7.852 44.6735 8.91848C44.6763 9.74766 44.677 9.98457 44.4446 10.5776C43.6311 12.5941 41.8776 13.9029 39.7683 13.9099C38.8308 13.913 38.2445 13.7965 37.3055 13.3258C36.1317 12.7375 35.191 11.7929 35.0719 11.2011C35.0699 10.6088 35.0695 10.4903 35.4199 10.1338C35.6535 9.89611 35.7703 9.77727 36.0046 9.77649C36.7077 9.77416 37.0613 10.3653 36.9476 11.4317C36.832 11.9059 36.9496 12.024 37.6539 12.377C38.3582 12.7301 39.0621 12.9646 39.9991 12.8431C40.7022 12.8407 40.9362 12.7215 41.5213 12.4826C43.2763 11.6476 44.0899 9.63115 43.6153 7.85589C43.0223 5.72566 40.9067 3.8374 38.5614 3.37138C37.7407 3.25565 35.7482 3.14382 34.6943 3.38423C31.6495 3.98664 28.6067 5.18131 21.3535 8.87756C16.674 11.2622 15.1526 11.8596 12.6937 12.46C10.2348 13.0605 7.65714 13.1875 5.89859 12.9564C3.08421 12.3735 1.08657 10.7218 0.492773 8.35464C0.255254 7.40778 0.368106 6.10439 0.600111 5.39289C1.41489 3.7318 3.75581 2.89482 5.98466 3.59815C7.0405 3.95 7.74557 4.53994 7.74794 5.25067C7.75069 6.07985 6.57925 6.2022 5.99097 5.49342C5.87339 5.37535 5.63823 5.13922 5.63744 4.90232C5.4015 4.42928 5.28393 4.31121 5.28353 4.19276C5.04877 4.07508 3.75975 4.07937 3.17462 4.31823C2.4723 4.55747 2.00475 4.91439 1.65556 5.62629C1.42276 6.10089 1.42316 6.21934 1.42631 7.16698C1.42946 8.11461 1.42985 8.23307 1.78376 8.94263C2.49159 10.3617 3.78416 11.4235 5.66068 11.8911C6.71613 12.1245 9.17699 12.1164 10.5824 11.8748C14.4467 11.0327 17.7204 8.77118 18.532 6.16246C18.7636 5.3325 18.7593 4.0295 18.5234 3.55646C18.1698 2.96535 17.5819 2.37503 16.9956 2.25852C16.5265 2.14163 15.1199 2.02785 14.8859 2.14708C14.7789 2.35044 14.6622 2.54848 14.5363 2.74052C14.3039 3.33357 14.0704 3.57126 13.6016 3.57282C13.0157 3.57477 12.8966 2.98289 13.129 2.38983C13.7117 1.44025 15.5851 0.960198 17.1101 1.42895Z" fill="#253746"/>
<path d="M40.2047 4.19506C40.4395 4.31274 40.5571 4.4308 40.5571 4.4308C40.6746 4.54887 35.9944 6.69664 33.1855 7.77208L29.6743 9.08677C28.5036 9.44603 27.4502 9.8049 27.4506 9.92335C27.3334 9.92374 27.2166 10.0426 27.1002 10.2799C26.7506 10.8733 25.696 10.8768 25.694 10.2846C25.5752 9.81113 26.16 9.45382 28.1501 8.85492L37.6298 5.15127L39.8528 4.07778C39.8524 3.95932 39.9699 4.07739 40.2047 4.19506ZM30.7227 7.18799C30.7227 7.18799 30.3715 7.30761 29.9035 7.54608C29.2012 7.78532 29.084 7.78571 26.7408 7.91196L24.3971 7.91975C24.3971 7.91975 24.6311 7.80052 24.9818 7.56244L25.5669 7.32359L28.145 7.31501C29.5504 7.07343 30.7223 7.06953 30.7227 7.18799Z" fill="#253746"/>
</g>
<defs>
<clipPath id="clip0_1451_5054">
<rect width="59.1782" height="12.9116" fill="white" transform="matrix(-0.999994 0.00332488 0.00332488 0.999994 59.178 0.933594)"/>
</clipPath>
</defs>
</svg>
