<svg width="67" height="42" viewBox="0 0 67 42" fill="none" xmlns="http://www.w3.org/2000/svg">
<path d="M32.9638 0.053918L64.2581 10.1037C64.8274 10.286 65.2217 10.8863 65.2217 11.57C65.2217 12.0514 65.0236 12.4961 64.6947 12.7818V19.5276C66.0623 20.0912 67.0019 21.5875 67 23.2962V30.0587L66.8269 30.2588H59.9725L59.7994 30.0587V23.2962C59.7994 21.6064 60.716 20.1234 62.0595 19.5453V13.7423L52.0843 16.9451V33.3604C52.0843 34.1786 51.5265 34.8501 50.8206 34.8824C48.5278 34.988 46.1878 35.3804 43.8623 36.0474C39.8759 37.1925 36.229 39.0957 33.5967 41.4036C33.3678 41.6037 33.0889 41.7137 32.8003 41.7137H32.4801C32.1935 41.7137 31.9136 41.6048 31.6847 41.4036C29.0514 39.0968 25.4045 37.1936 21.419 36.0474C19.0926 35.3804 16.7526 34.988 14.4608 34.8824C13.7549 34.849 13.1971 34.1775 13.1971 33.3604V16.9629L0.964631 13.0375C0.394316 12.8551 0 12.2548 0 11.57C0 10.8874 0.394316 10.2882 0.964631 10.1048L32.2579 0.0550291C32.4887 -0.018343 32.733 -0.018343 32.9629 0.0550291L32.9638 0.053918ZM49.4501 17.7922L32.9629 23.0861C32.8475 23.1228 32.7292 23.1417 32.6118 23.1417C32.533 23.1417 32.4551 23.1328 32.3762 23.1161L32.2589 23.085L15.8313 17.81V31.9252C17.8952 32.1064 19.9831 32.4989 22.0538 33.0947C26.1297 34.2642 29.7718 36.1041 32.6416 38.442C35.5105 36.1041 39.1527 34.2642 43.2276 33.0947C45.0405 32.5734 46.8649 32.2076 48.6749 32.0031L49.4501 31.9252V17.7922ZM63.5493 22.3246H63.254C62.8404 22.3246 62.4971 22.6892 62.4423 23.1639L62.4356 23.2973V27.2138H64.3687V23.2962C64.3687 22.8037 64.059 22.3969 63.6599 22.3335L63.5493 22.3246ZM32.6128 3.10109L6.23692 11.57L32.5657 20.0534L54.6396 12.9652H33.4582C32.7311 12.9652 32.1406 12.2837 32.1406 11.4422C32.1406 10.6584 32.6551 10.0125 33.3139 9.93026L33.4582 9.92025H53.8472L32.6118 3.1022L32.6128 3.10109Z" fill="#3390EC"/>
</svg>
