<svg width="20" height="14" viewBox="0 0 20 14" fill="none" xmlns="http://www.w3.org/2000/svg">
<path d="M10 0C13.682 0 17.015 2.333 20 7C17.015 11.667 13.682 14 10 14C6.318 14 2.985 11.667 0 7C2.985 2.333 6.318 0 10 0ZM10 1.5C7.105 1.5 4.378 3.277 1.801 7C4.378 10.723 7.105 12.5 10 12.5C12.808 12.5 15.457 10.83 17.964 7.333L18.2 7L17.965 6.667C15.457 3.17 12.808 1.5 10 1.5ZM10 3.25C10.9946 3.25 11.9484 3.64509 12.6517 4.34835C13.3549 5.05161 13.75 6.00544 13.75 7C13.75 7.99456 13.3549 8.94839 12.6517 9.65165C11.9484 10.3549 10.9946 10.75 10 10.75C9.00544 10.75 8.05161 10.3549 7.34835 9.65165C6.64509 8.94839 6.25 7.99456 6.25 7C6.25 6.00544 6.64509 5.05161 7.34835 4.34835C8.05161 3.64509 9.00544 3.25 10 3.25ZM10 4.75C9.40326 4.75 8.83097 4.98705 8.40901 5.40901C7.98705 5.83097 7.75 6.40326 7.75 7C7.75 7.59674 7.98705 8.16903 8.40901 8.59099C8.83097 9.01295 9.40326 9.25 10 9.25C10.5967 9.25 11.169 9.01295 11.591 8.59099C12.0129 8.16903 12.25 7.59674 12.25 7C12.25 6.40326 12.0129 5.83097 11.591 5.40901C11.169 4.98705 10.5967 4.75 10 4.75Z" fill="white"/>
</svg>
