<svg width="64" height="51" viewBox="0 0 64 51" fill="none" xmlns="http://www.w3.org/2000/svg">
<path d="M39.6667 1.33335C39.1333 2.13335 38.2 2.26668 37.4 1.86668C36.7333 1.33335 33.6667 1.73335 30.8667 2.66668C26.7333 4.13335 25.4 4.13335 23.6667 2.66668C21.5333 0.933351 15 1.86668 15 4.00002C15 4.80002 13.8 5.33335 12.3333 5.33335C10.8667 5.33335 9 6.53335 8.06666 8.00002C7.13333 9.46668 5.26666 10.6667 3.8 10.6667C1.8 10.6667 1.53333 11.3334 2.2 15.2C2.73333 18.1334 2.46666 20.1334 1.53333 20.6667C-2.33333 23.0667 5.26666 42.6667 12.0667 48.1334C14.8667 50.2667 17.6667 50.6667 31.5333 50.6667C41.8 50.6667 48.8667 50 51 48.9334C58.0667 45.3334 66.7333 25.2 63.1333 20.8C62.3333 19.7334 62.0667 17.2 62.4667 14.6667C63.5333 10 61.8 8.00002 56.7333 8.00002C55.1333 8.00002 53.6667 7.60002 53.4 6.93335C52.6 5.20002 44.4667 1.77026e-05 42.4667 1.77026e-05C41.4 1.77026e-05 40.0667 0.666684 39.6667 1.33335ZM45.2667 4.53335C45.8 5.60002 47.5333 6.66668 49 6.93335C51.1333 7.46668 50.7333 7.86668 46.8667 9.60002C44.2 10.8 41.5333 12.4 41.1333 13.2C39.1333 16.2667 34.2 12.8 32.8667 7.33335C31.9333 3.73335 32.0667 3.60002 36.0667 4.40002C38.3333 4.93335 40.6 4.66668 41 4.00002C42.2 2.13335 44.0667 2.40002 45.2667 4.53335ZM22.4667 5.20002C23.1333 5.86668 25.1333 6.66668 26.8667 6.93335C30.8667 7.46668 32.3333 10.6667 28.6 10.6667C27.1333 10.6667 24.6 11.7334 22.8667 13.2C20.0667 15.4667 19.5333 15.4667 14.7333 13.4667C9.4 11.2 8.73333 9.06668 13.1333 8.13335C14.4667 7.86668 16.2 6.93335 16.7333 5.86668C17.9333 3.73335 20.6 3.46668 22.4667 5.20002ZM59.6667 12C60.0667 12.6667 60.0667 14.8 59.5333 16.6667C58.8667 19.3334 57.9333 20 54.4667 20C50.6 19.8667 50.4667 19.8667 52.8667 18C54.3333 16.9334 55 15.6 54.6 15.0667C54.0667 14.6667 51.8 15.4667 49.6667 17.0667C45.8 20 40.3333 21.0667 40.3333 18.9334C40.3333 17.4667 45.8 12.5334 48.3333 11.6C51.6667 10.4 58.7333 10.5334 59.6667 12ZM16.2 16.9334C19.2667 18.9334 19.4 19.3334 17.2667 19.7334C15.9333 20 13.8 19.3334 12.4667 18.1334C9.53333 15.4667 7.8 15.4667 8.86666 18.1334C9.4 19.3334 9 20 8.06666 19.7334C7.26666 19.4667 6.06666 17.8667 5.4 16.1334C4.33333 13.2 4.46666 13.0667 8.6 13.8667C10.8667 14.2667 14.3333 15.7334 16.2 16.9334ZM35.4 16.2667L38.3333 19.3334L34.0667 19.7334C31.6667 20 27.6667 20 25.4 19.7334L21 19.3334L24.0667 16.2667C25.6667 14.6667 28.2 13.3334 29.6667 13.3334C31.1333 13.3334 33.6667 14.6667 35.4 16.2667ZM61.4 25.6L61 28.6667H32.3333H3.66666L3.26666 25.6L2.86666 22.6667H32.3333H61.8L61.4 25.6ZM57.4 37.4667C51.9333 47.2 50.0667 48 32.3333 48C14.6 48 12.7333 47.2 7.26666 37.4667L4.2 32H32.3333H60.4667L57.4 37.4667Z" fill="#C2AB89"/>
</svg>
