<svg width="41" height="49" viewBox="0 0 41 49" fill="none" xmlns="http://www.w3.org/2000/svg">
<path d="M21.3021 0.423896C25.9491 4.9789 31.5361 7.1099 38.8891 7.1099C39.7321 7.1269 40.4061 7.8149 40.4061 8.6579L40.5021 14.7379L40.5121 15.8599C40.5341 18.7229 40.4791 20.6029 40.3031 22.7699L40.2581 23.2909C39.1341 35.5579 33.7941 43.7329 21.2591 48.2759L20.5641 48.5219H19.8301L19.1441 48.2779C6.64613 43.7269 1.32113 35.5499 0.198126 23.2879L0.0691255 21.6179L0.0511259 21.2659C-0.0168741 19.6139 -0.0168745 15.4109 0.0501255 8.6579C0.0501255 7.8149 0.723126 7.1279 1.58613 7.1099C8.92613 7.1099 14.5041 4.9819 19.1541 0.423896C19.8741 -0.162104 20.7431 -0.120104 21.3021 0.423896ZM20.2321 3.6999L19.8021 4.0699C15.3321 7.8299 10.1421 9.7859 3.12213 10.1799L3.07113 15.7999C3.05713 18.2579 3.06513 19.7999 3.09513 20.4259L3.19213 22.0149C4.05013 33.6979 8.68613 41.1709 20.2331 45.3649C28.3361 42.4189 33.1001 37.6929 35.4631 31.1849C37.0841 26.7209 37.4941 22.6809 37.4211 15.0209L37.3231 10.1859C30.7001 9.9649 25.2981 7.9819 20.6651 4.0719L20.2321 3.6999ZM28.8391 18.1789C29.3791 18.3419 29.7881 18.7819 29.9101 19.3319C30.0331 19.8819 29.8501 20.4539 29.4531 20.8119L18.7641 31.0319C18.4771 31.3199 18.0771 31.4819 17.6781 31.4819C17.2581 31.4819 16.8811 31.3219 16.5571 30.9969L11.1131 24.9569C10.7011 24.5849 10.5101 24.0229 10.6241 23.5149C10.7311 22.9089 11.1901 22.4249 11.7891 22.2849C12.3891 22.1469 13.0131 22.3779 13.3151 22.7989L17.7201 27.6839L27.0261 18.8769V18.8069L27.3381 18.5209C27.7421 18.1509 28.3111 18.0209 28.8391 18.1789Z" fill="#3390EC"/>
</svg>
