<svg width="15" height="20" viewBox="0 0 15 20" fill="none" xmlns="http://www.w3.org/2000/svg">
<path d="M7.25 0C11.214 0 14.5 3.053 14.5 7.25C14.5 9.522 12.748 13.137 9.249 18.22L8.682 19.034C8.52041 19.2639 8.30583 19.4516 8.05639 19.581C7.80696 19.7105 7.53001 19.778 7.24898 19.7778C6.96795 19.7776 6.6911 19.7097 6.44184 19.5799C6.19259 19.4501 5.97827 19.2622 5.817 19.032L5.536 18.63C1.848 13.331 0 9.584 0 7.25C0 3.053 3.286 0 7.25 0ZM7.25 1.5C4.09 1.5 1.5 3.907 1.5 7.25C1.5 9.069 3.073 12.354 6.226 16.987L6.766 17.772L7.046 18.172C7.06907 18.2048 7.09969 18.2316 7.13529 18.2501C7.17088 18.2685 7.21039 18.2782 7.2505 18.2782C7.29061 18.2782 7.33012 18.2685 7.36572 18.2501C7.40131 18.2316 7.43193 18.2048 7.455 18.172L7.995 17.394L8.522 16.62C11.509 12.18 13 9.022 13 7.25C13 3.907 10.41 1.5 7.25 1.5ZM7.25 3.5C8.24456 3.5 9.19839 3.89509 9.90165 4.59835C10.6049 5.30161 11 6.25544 11 7.25C11 8.24456 10.6049 9.19839 9.90165 9.90165C9.19839 10.6049 8.24456 11 7.25 11C6.25544 11 5.30161 10.6049 4.59835 9.90165C3.89509 9.19839 3.5 8.24456 3.5 7.25C3.5 6.25544 3.89509 5.30161 4.59835 4.59835C5.30161 3.89509 6.25544 3.5 7.25 3.5ZM7.25 5C6.65326 5 6.08097 5.23705 5.65901 5.65901C5.23705 6.08097 5 6.65326 5 7.25C5 7.84674 5.23705 8.41903 5.65901 8.84099C6.08097 9.26295 6.65326 9.5 7.25 9.5C7.84674 9.5 8.41903 9.26295 8.84099 8.84099C9.26295 8.41903 9.5 7.84674 9.5 7.25C9.5 6.65326 9.26295 6.08097 8.84099 5.65901C8.41903 5.23705 7.84674 5 7.25 5Z" fill="#3390EC"/>
</svg>
