<svg width="17" height="18" viewBox="0 0 17 18" fill="none" xmlns="http://www.w3.org/2000/svg">
<path d="M4.21878 1.51078L6.54378 3.83578C7.07078 4.36278 7.11778 5.20278 6.65178 5.78578L5.70178 6.97178C6.19578 7.88178 6.79178 8.68378 7.49178 9.38278C8.09948 9.98871 8.78041 10.5165 9.51878 10.9538L9.90178 11.1718L11.0888 10.2218C11.3703 9.99678 11.7248 9.88349 12.0846 9.9036C12.4444 9.92371 12.7841 10.0758 13.0388 10.3308L15.4238 12.7158C15.9108 13.2028 15.9918 13.9638 15.6198 14.5428C15.3498 14.9608 14.9998 15.3578 14.5698 15.7348C14.282 15.9859 13.975 16.2143 13.6518 16.4178L13.3388 16.6048C12.6226 17.0103 11.7757 17.1181 10.9808 16.9048C8.33305 16.2104 5.939 14.7737 4.08078 12.7638C2.38078 10.9438 1.11378 8.71778 0.275781 6.08378L0.125781 5.59678C-0.0321171 5.0562 -0.0415282 4.48307 0.0985363 3.93759C0.238601 3.39211 0.522972 2.89442 0.921782 2.49678L1.06978 2.35778L1.56978 1.93678C1.81778 1.73678 2.07078 1.54378 2.32978 1.35678C2.61171 1.15412 2.95653 1.05833 3.30259 1.08655C3.64865 1.11476 3.9734 1.26513 4.21878 1.51078ZM3.06178 2.37578C2.82178 2.54878 2.58778 2.72678 2.35878 2.91178L2.01978 3.19378L1.89678 3.30078C1.62772 3.53622 1.43137 3.8435 1.33077 4.18659C1.23016 4.52967 1.22947 4.89432 1.32878 5.23778L1.47278 5.71078C2.25478 8.16378 3.42878 10.2278 4.99678 11.9078C6.69502 13.7465 8.88434 15.0603 11.3058 15.6938C11.7828 15.8218 12.2908 15.7568 12.7078 15.5218L12.9938 15.3498C13.2598 15.1808 13.5098 14.9948 13.7438 14.7898C14.0888 14.4878 14.3618 14.1788 14.5638 13.8638C14.5893 13.8238 14.6006 13.7763 14.5957 13.7291C14.5908 13.6819 14.57 13.6377 14.5368 13.6038L12.1508 11.2178C12.1144 11.1816 12.066 11.16 12.0148 11.1571C11.9636 11.1541 11.9131 11.17 11.8728 11.2018L10.3668 12.4068C10.2731 12.4818 10.16 12.5283 10.0407 12.5409C9.92139 12.5535 9.801 12.5316 9.69378 12.4778C8.55121 11.9136 7.50767 11.168 6.60378 10.2698C5.70561 9.36589 4.95993 8.32235 4.39578 7.17978C4.34221 7.07268 4.32042 6.95249 4.33301 6.8334C4.34559 6.71431 4.39201 6.60132 4.46678 6.50778L5.67178 5.00178C5.70394 4.96153 5.72018 4.91087 5.71741 4.85943C5.71465 4.80798 5.69307 4.75935 5.65678 4.72278L3.33178 2.39778L3.28378 2.36178C3.24918 2.3431 3.21002 2.3345 3.17078 2.33697C3.13153 2.33945 3.09376 2.3529 3.06178 2.37578ZM8.52978 3.81978C8.57016 3.65857 8.67289 3.51999 8.8154 3.43448C8.95791 3.34898 9.12853 3.32355 9.28978 3.36378C11.1878 3.83778 13.0358 5.68578 13.5098 7.58378C13.5501 7.74517 13.5246 7.91596 13.439 8.05858C13.3534 8.2012 13.2147 8.30397 13.0533 8.34428C12.8919 8.38459 12.7211 8.35915 12.5785 8.27354C12.4359 8.18793 12.3331 8.04917 12.2928 7.88778C11.9308 6.43978 10.4338 4.94278 8.98578 4.58078C8.82457 4.5404 8.68599 4.43767 8.60048 4.29516C8.51498 4.15265 8.48955 3.98103 8.52978 3.81978ZM9.18278 0.00178246L9.27478 0.0147825C13.2748 0.904782 15.9698 3.59878 16.8588 7.59978C16.8921 7.76104 16.8606 7.92892 16.7712 8.06716C16.6817 8.20541 16.5415 8.30292 16.3808 8.33864C16.22 8.37436 16.0517 8.34542 15.9121 8.25807C15.7725 8.17071 15.6729 8.03196 15.6348 7.87178C14.8508 4.34578 12.5278 2.02278 9.00178 1.23978C8.84657 1.20615 8.70991 1.11488 8.61939 0.984399C8.52886 0.853916 8.49123 0.693943 8.51408 0.536787C8.53693 0.37963 8.61856 0.236999 8.74249 0.137697C8.86643 0.0383945 9.02342 -0.01018 9.18178 0.00178246H9.18278Z" fill="#3390EC"/>
</svg>
