<?xml version="1.0" standalone="no"?>
<!DOCTYPE svg PUBLIC "-//W3C//DTD SVG 20010904//EN"
 "http://www.w3.org/TR/2001/REC-SVG-20010904/DTD/svg10.dtd">
<svg version="1.0" xmlns="http://www.w3.org/2000/svg"
 width="512.000000pt" height="512.000000pt" viewBox="0 0 512.000000 512.000000"
 preserveAspectRatio="xMidYMid meet">

<g transform="translate(0.000000,512.000000) scale(0.100000,-0.100000)"
fill="#ffffff" stroke="none">
<path d="M772 4800 c-223 -59 -395 -232 -452 -456 -19 -75 -20 -116 -20 -1391
l0 -1313 60 0 60 0 0 1308 c0 1436 -3 1357 61 1484 40 79 128 167 207 207 128
64 42 61 1544 61 l1368 0 0 60 0 60 -1377 -1 c-1323 0 -1381 -1 -1451 -19z"/>
<path d="M3680 4760 l0 -60 288 0 c223 0 301 -3 345 -15 185 -48 324 -187 372
-372 23 -86 23 -3420 0 -3506 -48 -185 -187 -324 -372 -372 -86 -23 -3420 -23
-3506 0 -185 48 -324 187 -372 372 -11 43 -15 118 -15 305 l0 248 -60 0 -60 0
0 -253 c0 -220 3 -264 20 -331 57 -225 231 -399 456 -456 76 -20 114 -20 1784
-20 1666 0 1709 0 1784 20 225 57 399 231 456 456 20 76 20 114 20 1784 0
1670 0 1708 -20 1784 -57 225 -231 399 -456 456 -68 18 -111 20 -371 20 l-293
0 0 -60z"/>
<path d="M3700 3794 c-91 -36 -698 -270 -1350 -521 -652 -250 -1200 -466
-1217 -480 -40 -29 -52 -50 -59 -106 -6 -39 -3 -48 25 -79 37 -43 53 -49 402
-178 151 -56 279 -106 285 -113 6 -7 64 -183 129 -392 64 -209 126 -397 136
-417 26 -50 63 -73 116 -72 53 1 72 14 291 193 112 91 182 141 196 141 15 0
145 -88 342 -232 176 -127 337 -242 359 -255 74 -42 155 -21 189 50 15 33 153
683 406 1921 l103 499 -18 34 c-25 46 -72 73 -126 72 -29 0 -100 -22 -209 -65z
m217 -97 c-6 -41 -430 -2102 -463 -2249 -9 -38 -20 -68 -26 -68 -6 0 -157 107
-336 237 -179 130 -341 245 -361 255 -43 22 -112 23 -151 3 -16 -8 -91 -66
-167 -128 -76 -62 -162 -132 -192 -156 l-55 -42 -12 23 c-10 20 -70 210 -218
689 -30 96 -42 122 -69 145 -22 21 -124 63 -342 143 -171 62 -316 119 -324
126 -11 11 -11 15 5 25 30 18 2677 1038 2698 1039 16 1 18 -4 13 -42z"/>
<path d="M2665 2944 c-363 -223 -669 -413 -679 -422 -26 -24 -56 -91 -56 -130
0 -35 143 -541 162 -572 27 -42 90 -52 131 -19 32 24 41 57 61 218 9 67 23
138 32 156 9 20 220 224 539 519 287 267 535 499 549 517 49 58 21 139 -50
139 -22 0 -209 -110 -689 -406z m355 72 c0 -3 -176 -168 -390 -367 -352 -326
-393 -368 -420 -423 -21 -42 -32 -83 -36 -134 -4 -40 -10 -74 -13 -76 -3 -3
-31 82 -60 186 -50 174 -53 193 -40 215 8 14 203 141 484 313 259 159 471 290
473 290 1 0 2 -2 2 -4z"/>
<path d="M300 1500 l0 -60 60 0 60 0 0 60 0 60 -60 0 -60 0 0 -60z"/>
</g>
</svg>
