<svg width="18" height="18" viewBox="0 0 18 18" fill="none" xmlns="http://www.w3.org/2000/svg">
<path d="M8.75 0C11.0706 0 13.2962 0.921872 14.9372 2.56282C16.5781 4.20376 17.5 6.42936 17.5 8.75C17.5 11.0706 16.5781 13.2962 14.9372 14.9372C13.2962 16.5781 11.0706 17.5 8.75 17.5C6.42936 17.5 4.20376 16.5781 2.56282 14.9372C0.921872 13.2962 0 11.0706 0 8.75C0 6.42936 0.921872 4.20376 2.56282 2.56282C4.20376 0.921872 6.42936 0 8.75 0ZM8.75 1.5C7.79792 1.5 6.85516 1.68753 5.97554 2.05187C5.09593 2.41622 4.2967 2.95025 3.62348 3.62348C2.95025 4.2967 2.41622 5.09593 2.05187 5.97554C1.68753 6.85516 1.5 7.79792 1.5 8.75C1.5 9.70208 1.68753 10.6448 2.05187 11.5245C2.41622 12.4041 2.95025 13.2033 3.62348 13.8765C4.2967 14.5497 5.09593 15.0838 5.97554 15.4481C6.85516 15.8125 7.79792 16 8.75 16C10.6728 16 12.5169 15.2362 13.8765 13.8765C15.2362 12.5169 16 10.6728 16 8.75C16 6.82718 15.2362 4.98311 13.8765 3.62348C12.5169 2.26384 10.6728 1.5 8.75 1.5ZM8.75 3C8.93124 3.00001 9.10634 3.06564 9.24293 3.18477C9.37952 3.30389 9.46835 3.46845 9.493 3.648L9.5 3.75V8.44L12.28 11.22C12.413 11.354 12.4905 11.5332 12.4971 11.7219C12.5038 11.9105 12.439 12.0947 12.3158 12.2378C12.1926 12.3808 12.02 12.4721 11.8325 12.4934C11.6449 12.5148 11.4562 12.4647 11.304 12.353L11.22 12.28L8.22 9.28C8.10835 9.16821 8.03486 9.02402 8.01 8.868L8 8.75V3.75C8 3.55109 8.07902 3.36032 8.21967 3.21967C8.36032 3.07902 8.55109 3 8.75 3Z" fill="#3390EC"/>
</svg>
