<svg width="20" height="20" viewBox="0 0 20 20" fill="none" xmlns="http://www.w3.org/2000/svg">
<g clip-path="url(#clip0_69_1077)">
<path d="M5.3 16.5001L6 16.9001C7.28095 17.649 8.74496 18.027 10.2284 17.9916C11.7118 17.9563 13.1561 17.5091 14.4 16.7001C15.7095 15.8456 16.74 14.626 17.3639 13.1922C17.9878 11.7584 18.1778 10.1732 17.9105 8.63256C17.6432 7.09191 16.9302 5.66338 15.8598 4.52356C14.7893 3.38374 13.4083 2.58262 11.8875 2.21923C10.3666 1.85584 8.77259 1.94611 7.30248 2.47889C5.83238 3.01167 4.55064 3.9636 3.61572 5.21699C2.6808 6.47038 2.1337 7.97028 2.04204 9.53126C1.95038 11.0922 2.31819 12.6459 3.1 14.0001L3.5 14.7001L2.9 17.1001L5.3 16.5001ZM0 20.0001L1.4 15.0001C0.175796 12.9011 -0.242285 10.4282 0.223879 8.04346C0.690043 5.65872 2.00856 3.52529 3.93304 2.04183C5.85753 0.558369 8.25631 -0.173627 10.6812 -0.0173778C13.106 0.138872 15.391 1.17268 17.1092 2.89086C18.8274 4.60904 19.8612 6.89404 20.0174 9.31889C20.1737 11.7437 19.4417 14.1425 17.9582 16.067C16.4748 17.9915 14.3413 19.31 11.9566 19.7762C9.57185 20.2423 7.09896 19.8243 5 18.6001L0 20.0001ZM6.4 5.30005H7C7.44524 6.05993 7.87862 6.82669 8.3 7.60005C8.3 7.80005 8.3 8.00005 8.1 8.10005L7.9 8.50005L7.5 8.90005V9.40005H7.6L8.6 10.8001L9 11.1001C9.5 11.5001 10 11.9001 10.6 12.1001L10.8 12.2001H11C11.055 12.2492 11.1262 12.2764 11.2 12.2764C11.2738 12.2764 11.345 12.2492 11.4 12.2001L12.2 11.2001C12.2865 11.1351 12.3918 11.1001 12.5 11.1001H12.7L14.1 11.8001L14.7 12.0001L14.9 12.3001V12.7001L14.7 13.4001L14.5 13.7001C14.3519 13.8551 14.1838 13.9897 14 14.1001C13.8697 14.1727 13.7362 14.2394 13.6 14.3001C13.3501 14.4216 13.0777 14.4897 12.8 14.5001H11.7C10.3 14.1001 9 13.4001 7.9 12.4001L7.2 11.8001C6.36845 10.9962 5.69067 10.0473 5.2 9.00005C5 8.60005 5 8.10005 5 7.60005C5 7.00005 5.2 6.40005 5.6 5.90005L5.8 5.60005C6 5.60005 6 5.50005 6.1 5.40005H6.5L6.4 5.30005Z" fill="#3390EC"/>
</g>
<defs>
<clipPath id="clip0_69_1077">
<rect width="20" height="20" fill="white"/>
</clipPath>
</defs>
</svg>
