<svg width="17" height="11" viewBox="0 0 17 11" fill="none" xmlns="http://www.w3.org/2000/svg">
<g clip-path="url(#clip0_69_818)">
<path d="M11.4588 1.28022C11.2775 1.33888 11.1753 1.53622 11.2224 1.73711C11.2348 1.79488 11.7193 2.33444 12.6695 3.35311L14.0971 4.88288L1.28285 4.89888L1.20107 4.96377C1.14439 5.01724 1.10167 5.08377 1.07662 5.15755C1.0384 5.27222 1.03929 5.29622 1.08285 5.394C1.10951 5.45355 1.16729 5.52733 1.21085 5.55755C1.28729 5.61088 0.950403 5.61444 7.37085 5.62155L14.098 5.63044L12.6846 7.14422C11.906 7.97711 11.2562 8.69799 11.2393 8.74599C11.1682 8.94866 11.2411 9.13711 11.4206 9.21711C11.6233 9.30866 11.5842 9.34511 13.4793 7.31666C14.6695 6.04288 15.25 5.39933 15.2633 5.34244C15.274 5.28576 15.274 5.22756 15.2633 5.17088C15.25 5.114 14.6722 4.47311 13.4944 3.21088C12.002 1.60822 11.6242 1.22688 11.5522 1.25L11.4597 1.27933L11.4588 1.28022Z" stroke="#546272" stroke-width="0.888889"/>
</g>
<defs>
<clipPath id="clip0_69_818">
<rect width="16" height="9.77778" fill="white" transform="translate(0.160156 0.361084)"/>
</clipPath>
</defs>
</svg>
