<svg width="61" height="15" viewBox="0 0 61 15" fill="#9ac27c" xmlns="http://www.w3.org/2000/svg">
<g clip-path="url(#clip0_1451_5050)">
<path d="M8.03928 1.07556C5.46044 1.3039 3.34719 2.48143 2.17063 3.89899C0.522962 6.02571 0.629512 9.22438 2.38136 11.007C3.19889 11.8389 4.48634 12.3171 5.89295 12.2033C7.6511 12.0907 8.94288 11.2658 9.53353 9.84626C9.77026 9.13631 9.77026 9.13632 9.7738 8.07022C9.77735 7.00413 9.77774 6.88568 9.42816 6.29224C8.96336 5.10613 8.02825 4.39229 6.9736 4.38878C5.68457 4.3845 5.21229 5.44903 6.38295 5.80829C6.61692 5.92752 6.85169 5.80985 7.32082 5.69295L8.02431 5.57683L8.25789 5.81452C8.37468 5.93337 8.60787 6.28951 8.72427 6.52681C8.95706 7.00141 8.95667 7.11986 8.95351 8.0675C8.95036 9.01513 8.94997 9.13359 8.71403 9.60663C8.12417 10.7892 6.7156 11.4953 5.07541 11.3714C4.48949 11.3694 4.13834 11.2498 3.78718 11.1302C2.50012 10.5336 1.80175 9.10982 1.80765 7.333C1.81238 5.91155 2.28466 4.84701 3.34247 3.90288C3.93036 3.31256 4.16551 3.07643 4.8698 2.7234C6.16079 2.13542 7.33342 1.9024 9.32594 1.79057C11.7868 1.79876 13.8949 2.16113 16.9378 3.35581C17.4061 3.47582 17.7569 3.7139 17.8741 3.71429C17.8741 3.71429 18.1088 3.59661 18.2264 3.47855L18.5788 3.24281L17.4085 2.76509C14.4828 1.57081 12.6091 1.20921 10.383 1.08335C9.44588 0.961781 8.39123 0.958274 8.03928 1.07556Z" fill="#9ac27c"/>
<path d="M43.0765 1.42895C42.3726 1.66352 42.0202 1.89926 41.4323 2.48959C40.8445 3.07991 40.7253 3.67179 40.7218 4.73789C40.7186 5.68552 40.9494 6.75239 41.4158 7.46468C41.5322 7.70198 41.649 7.82082 41.649 7.82082L40.2451 7.10542C36.6191 5.07961 33.3435 3.41034 31.2366 2.6926C27.725 1.49636 24.0927 1.36583 21.0427 2.30334C18.8139 3.00666 16.9338 4.54034 15.99 6.43249C15.5185 7.26012 15.3994 7.852 15.513 8.91848C15.5103 9.74766 15.5095 9.98457 15.7419 10.5776C16.5555 12.5941 18.3089 13.9029 20.4182 13.9099C21.3557 13.913 21.942 13.7965 22.881 13.3258C24.0549 12.7375 24.9955 11.7929 25.1146 11.2011C25.1166 10.6088 25.117 10.4903 24.7666 10.1338C24.533 9.89611 24.4162 9.77727 24.1819 9.77649C23.4788 9.77416 23.1253 10.3653 23.2389 11.4317C23.3545 11.9059 23.2369 12.024 22.5326 12.377C21.8284 12.7301 21.1245 12.9646 20.1874 12.8431C19.4843 12.8407 19.2503 12.7215 18.6652 12.4826C16.9102 11.6476 16.0966 9.63115 16.5712 7.85589C17.1642 5.72566 19.2798 3.8374 21.6251 3.37138C22.4458 3.25565 24.4383 3.14382 25.4922 3.38423C28.537 3.98664 31.5798 5.18131 38.833 8.87756C43.5125 11.2622 45.0339 11.8596 47.4928 12.46C49.9517 13.0605 52.5294 13.1875 54.2879 12.9564C57.1023 12.3735 59.1 10.7218 59.6938 8.35464C59.9313 7.40778 59.8184 6.10439 59.5864 5.39289C58.7716 3.7318 56.4307 2.89482 54.2019 3.59815C53.146 3.95 52.441 4.53994 52.4386 5.25067C52.4358 6.07985 53.6073 6.2022 54.1956 5.49342C54.3131 5.37535 54.5483 5.13922 54.5491 4.90232C54.785 4.42928 54.9026 4.31121 54.903 4.19276C55.1378 4.07508 56.4268 4.07937 57.0119 4.31823C57.7142 4.55747 58.1818 4.91439 58.531 5.62629C58.7638 6.10089 58.7634 6.21934 58.7602 7.16698C58.7571 8.11461 58.7567 8.23307 58.4028 8.94263C57.6949 10.3617 56.4024 11.4235 54.5258 11.8911C53.4704 12.1245 51.0095 12.1164 49.6041 11.8748C45.7398 11.0327 42.4661 8.77118 41.6545 6.16246C41.4229 5.3325 41.4272 4.0295 41.6632 3.55646C42.0167 2.96535 42.6046 2.37503 43.1909 2.25852C43.66 2.14163 45.0666 2.02785 45.3006 2.14708C45.4077 2.35044 45.5243 2.54848 45.6502 2.74052C45.8826 3.33357 46.1162 3.57126 46.5849 3.57282C47.1708 3.57477 47.29 2.98289 47.0576 2.38983C46.4748 1.44025 44.6014 0.960198 43.0765 1.42895Z" fill="#9ac27c"/>
<path d="M19.9818 4.19506C19.7471 4.31274 19.6295 4.4308 19.6295 4.4308C19.5119 4.54887 24.1922 6.69664 27.001 7.77208L30.5122 9.08677C31.6829 9.44603 32.7364 9.8049 32.736 9.92335C32.8531 9.92374 32.9699 10.0426 33.0863 10.2799C33.4359 10.8733 34.4906 10.8768 34.4925 10.2846C34.6113 9.81113 34.0266 9.45382 32.0364 8.85492L22.5567 5.15127L20.3338 4.07778C20.3342 3.95932 20.2166 4.07739 19.9818 4.19506ZM29.4639 7.18799C29.4639 7.18799 29.815 7.30761 30.283 7.54608C30.9853 7.78532 31.1025 7.78571 33.4458 7.91196L35.7894 7.91975C35.7894 7.91975 35.5555 7.80052 35.2047 7.56244L34.6196 7.32359L32.0415 7.31501C30.6361 7.07343 29.4643 7.06953 29.4639 7.18799Z" fill="#9ac27c"/>
</g>
<defs>
<clipPath id="clip0_1451_5050">
<rect width="59.1782" height="12.9116" fill="white" transform="translate(1.00854 0.933594) rotate(0.190502)"/>
</clipPath>
</defs>
</svg>
