<svg width="54" height="42" viewBox="0 0 54 42" fill="none" xmlns="http://www.w3.org/2000/svg">
<path d="M45.6555 0L45.7548 0.0580553L53.1186 12.5829L53.104 12.7306L26.8907 42H26.7194L0.506112 12.7306L0.491516 12.5829L7.41655 0.907507C7.47298 0.67732 7.59461 0.46241 7.77851 0.295372L7.95463 0H45.6555ZM34.3217 13.7185H19.2884L26.8041 36.61L34.3217 13.7185ZM49.0533 13.7185H36.763L29.6483 35.3836L49.0533 13.7185ZM16.8461 13.7185H4.5539L23.959 35.3826L16.8442 13.7185H16.8461ZM8.68245 3.26234L3.95744 11.3006H15.1794L8.68245 3.26234ZM26.8051 3.08003L20.1593 11.3006H33.4489L26.8051 3.08003ZM44.9267 3.26336L38.4288 11.3006H49.6517L44.9267 3.26336ZM10.9798 2.36095L17.6703 10.6385L24.3414 2.38437L10.9798 2.36095ZM29.2736 2.3915L35.9398 10.6385L42.5885 2.41391L29.2736 2.3915Z" fill="#3390EC"/>
</svg>
