<?xml version="1.0" encoding="UTF-8"?> <svg xmlns="http://www.w3.org/2000/svg" width="1441" height="103" viewBox="0 0 1441 103" fill="none"> <path d="M112.573 -2.28882e-05H0.683188L0.6832 102.591L0.522888 102.775C65.1468 102.775 97.4817 81.7428 128.74 61.4099C157.732 42.5366 185.097 24.7325 240.63 24.7325C296.141 24.7325 323.529 42.5429 352.508 61.3873L352.543 61.4099C383.825 81.7428 416.182 102.775 480.622 102.775C545.016 102.775 577.353 81.7724 608.635 61.4531L608.701 61.4099C637.694 42.5366 665.06 24.7325 720.592 24.7325C776.101 24.7325 803.49 42.5429 832.469 61.3871L832.503 61.4099L832.538 61.4307C863.809 81.757 896.143 102.775 960.583 102.775C1025.05 102.775 1057.38 81.7428 1088.64 61.4099C1117.63 42.5366 1145 24.7325 1200.53 24.7325C1256.04 24.7325 1283.43 42.5429 1312.41 61.3871L1312.44 61.4099C1343.7 81.7428 1376.04 102.775 1440.5 102.775V-2.28882e-05H1328.61H1200.53H1072.47H960.583H848.672H720.592H592.536H480.645H368.711H240.63H112.573Z" fill="#F8F5F0"></path> </svg> 