<svg width="18" height="18" viewBox="0 0 18 18" fill="none" xmlns="http://www.w3.org/2000/svg">
<path fill-rule="evenodd" clip-rule="evenodd" d="M1.23244 7.76325C6.06331 5.23109 9.27922 3.54846 10.8941 2.73215C15.4903 0.416545 16.4565 0.0166662 17.0776 0C17.2156 0 17.5193 0.0333325 17.7263 0.233327C17.8919 0.399879 17.9333 0.616428 17.9609 0.782979C17.9886 0.949642 18.0162 1.29952 17.9886 1.56607C17.7401 4.73132 16.6635 12.4112 16.1114 15.943C15.8767 17.4423 15.4213 17.9421 14.9796 17.9921C14.0135 18.092 13.2819 17.2258 12.3571 16.4927C10.8941 15.3433 10.0797 14.6268 8.65813 13.4941C7.01561 12.1947 8.07837 11.4783 9.01696 10.3122C9.26541 10.0123 13.5028 5.34764 13.5856 4.93121C13.5994 4.88121 13.5994 4.68132 13.5028 4.58133C13.4061 4.48144 13.2681 4.51466 13.1576 4.548C13.0059 4.58133 10.6871 6.44717 6.17368 10.1289C5.51117 10.6786 4.91769 10.9452 4.37936 10.9285C3.78588 10.9118 2.65408 10.5287 1.79833 10.1955C0.763157 9.79575 -0.0649913 9.57909 0.00402172 8.87944C0.0454277 8.51289 0.459506 8.14646 1.23244 7.76325Z" fill="#3390EC"/>
</svg>
