<svg width="24" height="14" viewBox="0 0 24 14" fill="none" xmlns="http://www.w3.org/2000/svg">
<g clip-path="url(#clip0_69_1082)">
<path d="M23.9 12.6L23.8 12.5C23.1 11.5 22.3 10.5 21.4 9.7L20.4 8.6C20.28 8.46659 20.1981 8.30336 20.1629 8.12741C20.1278 7.95147 20.1406 7.7693 20.2 7.6L21.2 5.9L22.1 4.8C23.5 2.8 24.1 1.6 24 1L23.9 0.9C23.7921 0.791389 23.6516 0.721136 23.5 0.7C23.2361 0.646122 22.9639 0.646122 22.7 0.7H18.7L18.6 0.8L18.4 0.9V1.2C17.6374 2.99806 16.6276 4.68095 15.4 6.2C15.4 6.4 15.2 6.6 15 6.7L14.7 6.8H14.5C14.3748 6.72882 14.2712 6.62518 14.2 6.5L14 6C13.9554 5.60124 13.9554 5.19876 14 4.8C14.0179 4.30016 14.0179 3.79984 14 3.3C13.994 2.43334 13.994 1.56666 14 0.7L13.7 0.4L13.2 0.2L11.5 0C10.5 0 9.5 0 8.5 0.3L8.1 0.7C7.9 0.9 7.9 1 8.1 1C8.2983 1.02818 8.48895 1.09579 8.6607 1.19884C8.83245 1.30189 8.98182 1.43829 9.1 1.6V1.7L9.3 2.3L9.4 3.3C9.50414 4.37051 9.43663 5.45079 9.2 6.5L9 6.7V6.8C8.86803 6.82694 8.73197 6.82694 8.6 6.8L8.2 6.7C8.0142 6.55363 7.84637 6.38579 7.7 6.2L7 5.3C6.7 5 6.5 4.5 6.3 4L6.1 3.6C5.62958 2.75238 5.19585 1.88491 4.8 1L4.4 0.6H0.8C0.675827 0.582745 0.549418 0.591622 0.428875 0.626063C0.308332 0.660503 0.196314 0.719748 0.1 0.8L0 1.1V1.4C1.49288 4.87712 3.44346 8.13929 5.8 11.1L6.1 11.4L7 12.1L8.3 12.9C9.35807 13.5361 10.5656 13.8811 11.8 13.9H13.2L13.9 13.5V13.2L14 12.9L14.1 11.9L14.3 11.3C14.4145 11.0618 14.5863 10.8556 14.8 10.7H14.9C15.0165 10.6619 15.1403 10.6511 15.2616 10.6685C15.383 10.6858 15.4988 10.7308 15.6 10.8L16.4 11.6C16.9332 12.2307 17.5007 12.8317 18.1 13.4L18.4 13.5L19 13.8H23L23.7 13.7L24.1 13.3V13L24 12.6H23.9Z" fill="#3390EC"/>
</g>
<defs>
<clipPath id="clip0_69_1082">
<rect width="24" height="14" fill="white"/>
</clipPath>
</defs>
</svg>
