<?xml version="1.0" standalone="no"?>
<!DOCTYPE svg PUBLIC "-//W3C//DTD SVG 20010904//EN"
 "http://www.w3.org/TR/2001/REC-SVG-20010904/DTD/svg10.dtd">
<svg version="1.0" xmlns="http://www.w3.org/2000/svg"
 width="512.000000pt" height="512.000000pt" viewBox="0 0 512.000000 512.000000"
 preserveAspectRatio="xMidYMid meet">

<g transform="translate(0.000000,512.000000) scale(0.100000,-0.100000)"
fill="#ffffff" stroke="none">
<path d="M287 5109 c-103 -24 -206 -111 -254 -214 l-28 -60 0 -2275 0 -2275
28 -60 c37 -79 114 -156 191 -192 l61 -28 2275 0 2275 0 65 31 c82 39 144 101
184 184 l31 65 0 2275 0 2275 -28 61 c-36 77 -113 154 -192 191 l-60 28 -1571
3 -1571 2 -26 -21 c-34 -26 -37 -77 -6 -105 21 -18 65 -19 1589 -24 l1568 -5
43 -30 c24 -17 57 -50 74 -74 l30 -43 3 -2231 c2 -1745 0 -2242 -10 -2277 -15
-58 -87 -131 -144 -148 -55 -16 -4448 -18 -4507 -1 -53 14 -132 93 -146 144
-16 57 -15 4454 0 4510 15 53 91 129 144 144 27 7 211 11 561 11 512 0 522 0
548 21 36 28 36 80 0 108 -26 21 -35 21 -558 20 -292 -1 -548 -5 -569 -10z"/>
<path d="M2405 4324 c-324 -38 -584 -133 -835 -305 -387 -265 -656 -669 -751
-1129 -21 -101 -24 -142 -24 -335 0 -190 3 -236 23 -333 33 -165 86 -316 163
-469 l69 -136 -45 -246 c-25 -135 -45 -260 -45 -279 0 -72 56 -142 129 -162
32 -8 83 -2 311 39 l273 50 100 -50 c167 -84 399 -153 584 -174 78 -9 101 -1
118 38 16 38 4 80 -28 94 -12 6 -80 20 -152 31 -161 25 -314 75 -468 153 -65
32 -131 59 -145 59 -15 -1 -144 -23 -287 -49 -143 -26 -266 -46 -272 -43 -18
6 -18 12 32 284 25 136 45 260 45 277 0 17 -11 49 -24 69 -85 135 -170 349
-208 526 -19 87 -22 131 -22 321 0 190 3 233 22 318 111 499 422 901 874 1132
447 229 987 231 1435 7 111 -56 251 -148 331 -216 28 -24 61 -48 72 -51 28 -9
73 16 84 46 16 45 0 73 -76 134 -282 226 -593 356 -943 395 -84 9 -273 11
-340 4z"/>
<path d="M3905 3630 c-64 -25 -62 -74 9 -180 111 -165 191 -359 238 -573 19
-88 22 -132 22 -322 0 -190 -3 -234 -22 -321 -79 -366 -268 -686 -537 -912
-248 -209 -512 -326 -852 -377 -43 -7 -83 -41 -83 -71 0 -28 24 -63 50 -72 58
-21 318 38 504 114 551 226 948 709 1067 1300 31 154 37 427 15 584 -30 205
-81 371 -168 545 -50 99 -145 252 -170 272 -21 17 -51 22 -73 13z"/>
<path d="M1845 3596 c-82 -17 -164 -39 -181 -49 -44 -23 -82 -71 -94 -120 -7
-23 -21 -64 -32 -92 -47 -116 -50 -129 -45 -205 3 -62 12 -93 50 -177 269
-601 761 -1103 1360 -1388 198 -94 283 -103 405 -41 28 14 69 28 91 32 59 10
126 56 151 104 25 48 80 312 80 382 0 54 -24 111 -62 144 -12 12 -89 60 -169
108 -113 68 -156 88 -196 92 -63 8 -122 -17 -199 -83 l-56 -47 -31 18 c-172
93 -488 404 -632 623 l-28 43 48 57 c71 87 88 126 83 193 -4 50 -15 75 -92
206 -101 171 -116 190 -171 215 -55 25 -105 23 -280 -15z m227 -128 c25 -21
168 -267 168 -290 0 -12 -26 -53 -58 -92 -78 -95 -92 -117 -92 -142 0 -24 111
-195 195 -299 76 -96 253 -273 350 -352 129 -104 282 -203 315 -203 28 0 72
30 178 122 18 15 40 28 50 28 9 0 81 -38 159 -85 166 -100 156 -76 118 -271
-34 -172 -33 -170 -95 -183 -29 -6 -84 -25 -122 -42 -55 -24 -79 -29 -107 -24
-59 10 -368 168 -491 251 -401 269 -709 620 -918 1043 -93 190 -99 226 -53
322 16 35 33 83 37 106 4 24 12 47 19 53 12 10 269 67 311 69 11 1 27 -5 36
-11z"/>
</g>
</svg>
