<svg width="19" height="19" viewBox="0 0 19 19" fill="none" xmlns="http://www.w3.org/2000/svg">
<path d="M4.77 14.8843L5.4 15.2443C6.55285 15.9184 7.87046 16.2585 9.20553 16.2267C10.5406 16.195 11.8405 15.7925 12.96 15.0643C14.1386 14.2953 15.066 13.1977 15.6275 11.9073C16.189 10.6169 16.36 9.19017 16.1195 7.80358C15.8789 6.417 15.2372 5.13132 14.2738 4.10548C13.3104 3.07964 12.0675 2.35863 10.6987 2.03158C9.32994 1.70453 7.89533 1.78578 6.57223 2.26528C5.24914 2.74478 4.09558 3.60152 3.25415 4.72957C2.41272 5.85762 1.92033 7.20753 1.83784 8.61241C1.75534 10.0173 2.08637 11.4156 2.79 12.6343L3.15 13.2643L2.61 15.4243L4.77 14.8843ZM0 18.0343L1.26 13.5343C0.158217 11.6453 -0.218056 9.41966 0.201491 7.27339C0.621038 5.12712 1.8077 3.20704 3.53974 1.87192C5.27178 0.536809 7.43068 -0.121987 9.61305 0.0186373C11.7954 0.159262 13.8519 1.08969 15.3983 2.63605C16.9446 4.18241 17.8751 6.23892 18.0157 8.42128C18.1563 10.6036 17.4975 12.7626 16.1624 14.4946C14.8273 16.2266 12.9072 17.4133 10.7609 17.8328C8.61467 18.2524 6.38906 17.8761 4.5 16.7743L0 18.0343ZM5.76 4.80433H6.3C6.70071 5.48822 7.09076 6.1783 7.47 6.87433C7.47 7.05433 7.47 7.23433 7.29 7.32433L7.11 7.68433L6.75 8.04433V8.49433H6.84L7.74 9.75433L8.1 10.0243C8.55 10.3843 9 10.7443 9.54 10.9243L9.72 11.0143H9.9C9.9495 11.0586 10.0136 11.0831 10.08 11.0831C10.1464 11.0831 10.2105 11.0586 10.26 11.0143L10.98 10.1143C11.0579 10.0559 11.1526 10.0243 11.25 10.0243H11.43L12.69 10.6543L13.23 10.8343L13.41 11.1043V11.4643L13.23 12.0943L13.05 12.3643C12.9168 12.5039 12.7654 12.625 12.6 12.7243C12.4827 12.7897 12.3626 12.8497 12.24 12.9043C12.0151 13.0137 11.7699 13.075 11.52 13.0843H10.53C9.27 12.7243 8.1 12.0943 7.11 11.1943L6.48 10.6543C5.73161 9.9309 5.1216 9.07689 4.68 8.13433C4.5 7.77433 4.5 7.32433 4.5 6.87433C4.5 6.33433 4.68 5.79433 5.04 5.34433L5.22 5.07433C5.4 5.07433 5.4 4.98433 5.49 4.89433H5.85L5.76 4.80433Z" fill="#3390EC"/>
</svg>
